<?xml version="1.0" encoding="utf-8"?>
<!-- Generator: Adobe Illustrator 21.1.0, SVG Export Plug-In . SVG Version: 6.00 Build 0)  -->
<svg version="1.1" id="Layer_1" xmlns="http://www.w3.org/2000/svg" xmlns:xlink="http://www.w3.org/1999/xlink" x="0px" y="0px"
	   style="enable-background:new 0 0 98.7 193.3;" xml:space="preserve">
<style type="text/css">
	.st0{fill:#FCB126;}
</style>
<path class="st0" d="M18.3,24.9l-3.7-0.1c-1,0-1.9-0.3-2.4-0.7c-1.6-1.2-1.3-5.1-1.3-7.4c0-0.5,0-1,0-1.4c0.2-1.4-0.3-3.8,3-4.2
	c1.4-0.2,7-0.2,8.1,0c1.9,0.3,2.8,1.5,2.8,3.4l0.1,3.8c0,1.8,0.2,4.5-1,5.7c-0.5,0.5-1.4,0.9-2.4,0.9C20.5,24.9,19.5,24.9,18.3,24.9
	L18.3,24.9z M14.9,9.4c-3.5,0-5.5,2-5.5,5.5V21c0,3.6,2,5.5,5.7,5.5h5.9c3.8,0,5.7-1.9,5.7-5.7V15c0-3.6-1.8-5.7-5.5-5.7L14.9,9.4
	L14.9,9.4z"/>
<path class="st0" d="M17.9,20.7c-1.4,0-2.7-1.3-2.7-2.9c0-1.4,1.3-2.7,2.9-2.7c1.4,0,2.7,1.3,2.7,2.7C20.8,19.5,19.6,20.7,17.9,20.7
	L17.9,20.7z M13.5,17.8c0,1.7,1.1,3.3,2.6,4.1c3.7,1.7,7.5-2.2,5.9-5.9C20,11.7,13.5,13.2,13.5,17.8z"/>
<path class="st0" d="M21.5,13.4c0,0.4,0.1,0.5,0.3,0.7c0.7,0.8,1.8,0.2,1.9-0.6C23.6,12.1,21.5,12.1,21.5,13.4z"/>
<path class="st0" d="M17.9,0.8c4.7,0,9,1.9,12.1,5.1c3.1,3.1,5.1,7.4,5.1,12.1S33.2,27,30,30c-3.1,3.1-7.4,5.1-12.1,5.1
	c-4.7,0-9-1.9-12.1-5.1C2.8,27,0.8,22.6,0.8,17.9s1.9-9,5.1-12.1C8.9,2.7,13.2,0.8,17.9,0.8L17.9,0.8z M29.3,6.6
	C26.4,3.7,22.4,1.9,18,1.9S9.6,3.7,6.8,6.6s-4.7,6.9-4.7,11.3s1.8,8.4,4.7,11.3s6.9,4.7,11.3,4.7s8.4-1.8,11.3-4.7S34,22.3,34,17.8
	C33.9,13.5,32.2,9.5,29.3,6.6z"/>
<path class="st0" d="M20.8,61.4v-6.7h2.4c0.1-0.4,0.3-1.9,0.5-2.1c0-0.4,0.1-0.5,0.1-0.9h-3c0-3.4-0.5-3.6,3-3.6v-3
	c-2.3,0.1-4.1-0.3-5.4,1.1c-1.3,1.3-1.1,3.3-1.1,5.4h-3v3h3V63h3.6L20.8,61.4z"/>
<path class="st0" d="M19,37.1c4.7,0,9,1.9,12.1,5.1c3.1,3.1,5.1,7.4,5.1,12.1s-1.9,9-5.1,12.1c-3.1,3.2-7.4,5.1-12.1,5.1
	s-9-1.9-12.1-5.1c-3.2-3.1-5.1-7.4-5.1-12.1s1.9-9,5.1-12.1C10,38.9,14.3,37.1,19,37.1L19,37.1z M30.3,42.9
	c-2.9-2.9-6.9-4.7-11.3-4.7S10.6,40,7.7,42.9s-4.7,6.9-4.7,11.3s1.8,8.4,4.7,11.3c2.9,2.9,6.9,4.7,11.3,4.7s8.4-1.8,11.3-4.7
	c2.9-2.9,4.7-6.9,4.7-11.3S33.2,45.8,30.3,42.9z"/>
<path class="st0" d="M15.5,98.2c7.3,0,11.4-6,11.4-11.4c0-0.2,0-0.4,0-0.5c0.8-0.5,1.4-1.3,2-2.1c-0.7,0.4-1.4,0.5-2.3,0.6
	c0.8-0.5,1.4-1.3,1.7-2.2c-0.8,0.5-1.6,0.8-2.5,1c-0.7-0.8-1.8-1.3-2.9-1.3c-2.2,0-4,1.8-4,4c0,0.3,0,0.6,0.1,0.9
	c-3.3-0.2-6.2-1.7-8.2-4.1c-0.4,0.6-0.5,1.3-0.5,2c0,1.4,0.7,2.6,1.8,3.3c-0.6,0-1.3-0.2-1.8-0.5V88c0,1.9,1.4,3.5,3.2,3.9
	c-0.4,0.1-0.7,0.2-1.1,0.2c-0.3,0-0.5,0-0.7-0.1c0.5,1.6,2,2.7,3.7,2.8c-1.4,1.1-3.1,1.7-5,1.7c-0.4,0-0.6,0-1-0.1
	C11.2,97.6,13.2,98.2,15.5,98.2z"/>
<path class="st0" d="M19.1,73.1c4.8,0,9,1.9,12.2,5.1c3.2,3.2,5.1,7.4,5.1,12.2s-1.9,9-5.1,12.2c-3.2,3.2-7.4,5.1-12.2,5.1
	s-9-1.9-12.2-5.1c-3.2-3.2-5.1-7.4-5.1-12.2s1.9-9,5.1-12.2C10,75,14.3,73.1,19.1,73.1L19.1,73.1z M30.5,79
	c-2.9-2.9-6.9-4.7-11.4-4.7S10.6,76.1,7.7,79c-2.9,2.9-4.7,6.9-4.7,11.4c0,4.4,1.8,8.5,4.7,11.4c2.9,2.9,6.9,4.7,11.4,4.7
	s8.5-1.8,11.4-4.7s4.7-6.9,4.7-11.4S33.4,81.9,30.5,79z"/>
<path class="st0" d="M18.1,109.2c4.7,0,9,1.9,12.1,5.1c3.1,3.1,5.1,7.4,5.1,12.1c0,4.7-1.9,9-5.1,12.1c-3.1,3.1-7.4,5.1-12.1,5.1
	s-9-1.9-12.1-5.1C2.9,135.4,1,131,1,126.3c0-4.7,1.9-9,5.1-12.1C9.1,111.1,13.3,109.2,18.1,109.2L18.1,109.2z M29.4,115.1
	c-2.9-2.9-6.9-4.7-11.3-4.7s-8.4,1.8-11.3,4.7c-2.9,2.9-4.7,6.9-4.7,11.3s1.8,8.4,4.7,11.3c2.9,2.9,6.9,4.7,11.3,4.7
	s8.4-1.8,11.3-4.7c2.9-2.9,4.7-6.9,4.7-11.3S32.3,118,29.4,115.1z"/>
<path class="st0" d="M21.3,125.2l-7.9-0.1v2.9H18c-0.8,4.6-7.9,5.1-9.6-0.1c-1.4-4.3,3-8.2,6.9-6.5c0.6,0.3,0.9,0.6,1.4,0.8l2.3-2.1
	c-1-1.2-3.1-2.2-5.1-2.3c-2.3-0.1-4.3,0.8-5.7,1.8c-2.6,2.1-4.2,6.5-2.2,10.6C9.8,137.9,22.8,135.4,21.3,125.2z"/>
<polygon class="st0" points="26.5,122.7 28.9,122.7 28.9,125.2 31.2,125.2 31.2,127.5 28.9,127.5 28.9,129.9 26.5,129.9 26.5,127.5 
	24.2,127.5 24.2,125.2 26.5,125.2 "/>
</svg>
